<svg width="24" height="24" viewBox="0 0 24 24" fill="none" xmlns="http://www.w3.org/2000/svg">
<path d="M20.0385 16.857C22.59 14.58 24 12 24 12C24 12 19.5 3.75 12 3.75C10.5594 3.75496 9.13508 4.05514 7.815 4.632L8.97 5.7885C9.94116 5.43473 10.9664 5.25252 12 5.25C15.18 5.25 17.8185 7.002 19.752 8.9355C20.6825 9.87104 21.5167 10.8977 22.242 12C22.155 12.1305 22.059 12.2745 21.9495 12.432C21.447 13.152 20.7045 14.112 19.752 15.0645C19.5045 15.312 19.2465 15.5565 18.9765 15.7935L20.0385 16.857Z" fill="black"/>
<path d="M16.9455 13.764C17.2802 12.8278 17.3422 11.8158 17.1242 10.8457C16.9063 9.87558 16.4173 8.98733 15.7143 8.28427C15.0112 7.58121 14.1229 7.09225 13.1529 6.87429C12.1828 6.65632 11.1707 6.71831 10.2345 7.05304L11.469 8.28754C12.0454 8.20503 12.6332 8.25791 13.1857 8.44199C13.7382 8.62607 14.2402 8.93628 14.652 9.34806C15.0637 9.75984 15.374 10.2619 15.558 10.8143C15.7421 11.3668 15.795 11.9546 15.7125 12.531L16.9455 13.764ZM12.531 15.7125L13.764 16.9455C12.8277 17.2803 11.8157 17.3423 10.8456 17.1243C9.87552 16.9063 8.98727 16.4174 8.28421 15.7143C7.58115 15.0113 7.09219 14.123 6.87423 13.1529C6.65626 12.1828 6.71825 11.1708 7.05298 10.2345L8.28748 11.469C8.20497 12.0455 8.25785 12.6333 8.44193 13.1858C8.626 13.7382 8.93622 14.2403 9.348 14.652C9.75978 15.0638 10.2618 15.374 10.8143 15.5581C11.3668 15.7422 11.9545 15.7951 12.531 15.7125Z" fill="black"/>
<path d="M5.025 8.20499C4.755 8.44499 4.4955 8.68799 4.248 8.93549C3.31747 9.87103 2.48328 10.8977 1.758 12L2.0505 12.432C2.553 13.152 3.2955 14.112 4.248 15.0645C6.1815 16.998 8.8215 18.75 12 18.75C13.074 18.75 14.085 18.5505 15.03 18.21L16.185 19.368C14.8649 19.9448 13.4406 20.245 12 20.25C4.5 20.25 0 12 0 12C0 12 1.4085 9.41849 3.9615 7.14299L5.0235 8.20649L5.025 8.20499ZM20.469 21.531L2.469 3.53099L3.531 2.46899L21.531 20.469L20.469 21.531Z" fill="black"/>
</svg>
