<svg width="24" height="24" viewBox="0 0 24 24" fill="none" xmlns="http://www.w3.org/2000/svg">
<path d="M8.48999 16.373C7.93249 16.3729 7.39123 16.1855 6.95294 15.8409C6.51465 15.4964 6.20475 15.0147 6.073 14.473L4.35999 7.62097H18C18.663 7.62097 19.2989 7.88437 19.7678 8.35321C20.2366 8.82205 20.5 9.45793 20.5 10.121V12.405C20.5025 13.0028 20.2896 13.5816 19.9003 14.0354C19.511 14.4892 18.9713 14.7875 18.38 14.876L8.88 16.338C8.75108 16.3595 8.62069 16.3712 8.48999 16.373ZM5.64099 8.62598L7.04102 14.235C7.13144 14.5981 7.35427 14.9142 7.66583 15.1215C7.9774 15.3287 8.35516 15.412 8.72498 15.355L18.225 13.8929C18.5803 13.8403 18.9047 13.6615 19.1389 13.3891C19.373 13.1167 19.5012 12.7691 19.5 12.41V10.126C19.5 9.72815 19.342 9.34661 19.0607 9.06531C18.7794 8.784 18.3978 8.62598 18 8.62598H5.64099Z" fill="#000421"/>
<path d="M5.00001 8.62599C4.88865 8.62573 4.78056 8.58832 4.69288 8.51966C4.60521 8.45101 4.54295 8.35501 4.516 8.24696L3.516 4.24696C3.49634 4.18212 3.49009 4.11398 3.49757 4.04664C3.50505 3.9793 3.5261 3.91417 3.55952 3.85523C3.59294 3.79629 3.63802 3.74474 3.69197 3.70374C3.74591 3.66275 3.80763 3.63319 3.87336 3.61677C3.9391 3.60035 4.00747 3.59746 4.07435 3.60829C4.14124 3.61911 4.2052 3.64339 4.2624 3.6797C4.31961 3.71601 4.36885 3.76355 4.40712 3.81947C4.44538 3.87538 4.47187 3.93848 4.485 4.00495L5.485 8.00495C5.51708 8.13344 5.4969 8.26945 5.42885 8.38307C5.36079 8.49668 5.25045 8.57863 5.12202 8.61097C5.08211 8.62088 5.04114 8.62593 5.00001 8.62599Z" fill="#000421"/>
<path d="M16 20.372C15.7033 20.372 15.4133 20.284 15.1666 20.1192C14.92 19.9544 14.7277 19.7201 14.6142 19.446C14.5007 19.1719 14.4709 18.8703 14.5288 18.5794C14.5867 18.2884 14.7296 18.0211 14.9393 17.8114C15.1491 17.6016 15.4164 17.4587 15.7073 17.4008C15.9983 17.343 16.3 17.3726 16.574 17.4862C16.8481 17.5997 17.0824 17.792 17.2472 18.0387C17.412 18.2853 17.5 18.5753 17.5 18.872C17.5 19.2698 17.342 19.6513 17.0607 19.9326C16.7794 20.2139 16.3978 20.372 16 20.372ZM16 18.372C15.9011 18.372 15.8045 18.4013 15.7222 18.4563C15.64 18.5112 15.5759 18.5893 15.5381 18.6806C15.5002 18.772 15.4903 18.8726 15.5096 18.9696C15.5289 19.0666 15.5765 19.1556 15.6464 19.2255C15.7164 19.2955 15.8055 19.3431 15.9025 19.3624C15.9995 19.3817 16.1 19.3718 16.1914 19.3339C16.2827 19.2961 16.3608 19.232 16.4157 19.1498C16.4707 19.0676 16.5 18.9709 16.5 18.872C16.5 18.7394 16.4474 18.6122 16.3536 18.5185C16.2598 18.4247 16.1326 18.372 16 18.372Z" fill="#000421"/>
<path d="M8.00001 20.372C7.70333 20.372 7.41331 20.284 7.16663 20.1192C6.91996 19.9544 6.72773 19.7201 6.6142 19.446C6.50067 19.1719 6.47094 18.8703 6.52882 18.5794C6.58669 18.2884 6.72956 18.0211 6.93934 17.8114C7.14912 17.6016 7.41637 17.4587 7.70734 17.4008C7.99831 17.343 8.29995 17.3726 8.57404 17.4862C8.84813 17.5997 9.08238 17.792 9.2472 18.0387C9.41202 18.2853 9.50001 18.5753 9.50001 18.872C9.50001 19.2698 9.34198 19.6513 9.06068 19.9326C8.77937 20.2139 8.39783 20.372 8.00001 20.372ZM8.00001 18.372C7.90112 18.372 7.80446 18.4013 7.72224 18.4563C7.64001 18.5112 7.57594 18.5893 7.53809 18.6806C7.50025 18.772 7.4903 18.8726 7.50959 18.9696C7.52888 19.0666 7.5765 19.1556 7.64643 19.2255C7.71636 19.2955 7.80548 19.3431 7.90247 19.3624C7.99946 19.3817 8.09999 19.3718 8.19135 19.3339C8.28271 19.2961 8.36078 19.232 8.41572 19.1498C8.47066 19.0676 8.50001 18.9709 8.50001 18.872C8.50001 18.7394 8.44735 18.6122 8.35358 18.5185C8.25981 18.4247 8.13261 18.372 8.00001 18.372Z" fill="#000421"/>
</svg>
