<svg width="24" height="24" viewBox="0 0 24 24" fill="none" xmlns="http://www.w3.org/2000/svg">
<path d="M9 11.5H6C5.33696 11.5 4.70108 11.2366 4.23224 10.7678C3.7634 10.2989 3.5 9.66304 3.5 9V6C3.5 5.33696 3.7634 4.70108 4.23224 4.23224C4.70108 3.7634 5.33696 3.5 6 3.5H9C9.66304 3.5 10.2989 3.7634 10.7678 4.23224C11.2366 4.70108 11.5 5.33696 11.5 6V9C11.5 9.66304 11.2366 10.2989 10.7678 10.7678C10.2989 11.2366 9.66304 11.5 9 11.5ZM6 4.5C5.60218 4.5 5.22064 4.65803 4.93933 4.93933C4.65803 5.22064 4.5 5.60218 4.5 6V9C4.5 9.39782 4.65803 9.77936 4.93933 10.0607C5.22064 10.342 5.60218 10.5 6 10.5H9C9.39782 10.5 9.77936 10.342 10.0607 10.0607C10.342 9.77936 10.5 9.39782 10.5 9V6C10.5 5.60218 10.342 5.22064 10.0607 4.93933C9.77936 4.65803 9.39782 4.5 9 4.5H6Z" fill="#000421"/>
<path d="M18 20.5H15C14.337 20.5 13.7011 20.2366 13.2322 19.7678C12.7634 19.2989 12.5 18.663 12.5 18V15C12.5 14.337 12.7634 13.7011 13.2322 13.2322C13.7011 12.7634 14.337 12.5 15 12.5H18C18.663 12.5 19.2989 12.7634 19.7678 13.2322C20.2366 13.7011 20.5 14.337 20.5 15V18C20.5 18.663 20.2366 19.2989 19.7678 19.7678C19.2989 20.2366 18.663 20.5 18 20.5ZM15 13.5C14.6022 13.5 14.2206 13.658 13.9393 13.9393C13.658 14.2206 13.5 14.6022 13.5 15V18C13.5 18.3978 13.658 18.7794 13.9393 19.0607C14.2206 19.342 14.6022 19.5 15 19.5H18C18.3978 19.5 18.7794 19.342 19.0607 19.0607C19.342 18.7794 19.5 18.3978 19.5 18V15C19.5 14.6022 19.342 14.2206 19.0607 13.9393C18.7794 13.658 18.3978 13.5 18 13.5H15Z" fill="#000421"/>
<path d="M9 20.5H6C5.33696 20.5 4.70108 20.2366 4.23224 19.7678C3.7634 19.2989 3.5 18.663 3.5 18V15C3.5 14.337 3.7634 13.7011 4.23224 13.2322C4.70108 12.7634 5.33696 12.5 6 12.5H9C9.66304 12.5 10.2989 12.7634 10.7678 13.2322C11.2366 13.7011 11.5 14.337 11.5 15V18C11.5 18.663 11.2366 19.2989 10.7678 19.7678C10.2989 20.2366 9.66304 20.5 9 20.5ZM6 13.5C5.60218 13.5 5.22064 13.658 4.93933 13.9393C4.65803 14.2206 4.5 14.6022 4.5 15V18C4.5 18.3978 4.65803 18.7794 4.93933 19.0607C5.22064 19.342 5.60218 19.5 6 19.5H9C9.39782 19.5 9.77936 19.342 10.0607 19.0607C10.342 18.7794 10.5 18.3978 10.5 18V15C10.5 14.6022 10.342 14.2206 10.0607 13.9393C9.77936 13.658 9.39782 13.5 9 13.5H6Z" fill="#000421"/>
<path d="M18 11.5H15C14.337 11.5 13.7011 11.2366 13.2322 10.7678C12.7634 10.2989 12.5 9.66304 12.5 9V6C12.5 5.33696 12.7634 4.70108 13.2322 4.23224C13.7011 3.7634 14.337 3.5 15 3.5H18C18.663 3.5 19.2989 3.7634 19.7678 4.23224C20.2366 4.70108 20.5 5.33696 20.5 6V9C20.5 9.66304 20.2366 10.2989 19.7678 10.7678C19.2989 11.2366 18.663 11.5 18 11.5ZM15 4.5C14.6022 4.5 14.2206 4.65803 13.9393 4.93933C13.658 5.22064 13.5 5.60218 13.5 6V9C13.5 9.39782 13.658 9.77936 13.9393 10.0607C14.2206 10.342 14.6022 10.5 15 10.5H18C18.3978 10.5 18.7794 10.342 19.0607 10.0607C19.342 9.77936 19.5 9.39782 19.5 9V6C19.5 5.60218 19.342 5.22064 19.0607 4.93933C18.7794 4.65803 18.3978 4.5 18 4.5H15Z" fill="#000421"/>
</svg>
