<svg width="24" height="24" viewBox="0 0 24 24" fill="none" xmlns="http://www.w3.org/2000/svg">
<path d="M8.91896 11.361H6.92897C6.49757 11.361 6.07353 11.2494 5.69802 11.037C5.32251 10.8247 5.00842 10.5188 4.78615 10.149C4.56389 9.77931 4.44099 9.35832 4.42958 8.92706C4.41818 8.49581 4.51855 8.06896 4.72097 7.68799L5.71596 5.815C5.92891 5.41439 6.24688 5.07927 6.63576 4.84558C7.02464 4.61189 7.46979 4.4884 7.92348 4.4884C8.37718 4.4884 8.82232 4.61189 9.2112 4.84558C9.60008 5.07927 9.91805 5.41439 10.131 5.815L11.131 7.68799C11.3334 8.06896 11.4338 8.49581 11.4224 8.92706C11.411 9.35832 11.2882 9.77931 11.0659 10.149C10.8437 10.5188 10.5295 10.8247 10.154 11.037C9.77844 11.2494 9.3544 11.361 8.92299 11.361H8.91896ZM7.92397 5.48798C7.65068 5.48548 7.38218 5.559 7.14821 5.70026C6.91425 5.84152 6.72408 6.04495 6.59902 6.28796L5.60402 8.16101C5.48347 8.38948 5.42399 8.64516 5.43129 8.90338C5.4386 9.1616 5.5125 9.4136 5.64577 9.63489C5.77905 9.85618 5.96721 10.0393 6.19204 10.1665C6.41687 10.2937 6.67065 10.3607 6.92897 10.361H8.91896C9.17729 10.3607 9.4312 10.2937 9.65603 10.1665C9.88086 10.0393 10.069 9.85618 10.2023 9.63489C10.3356 9.4136 10.4095 9.1616 10.4168 8.90338C10.4241 8.64516 10.3646 8.38948 10.244 8.16101L9.24404 6.28796C9.11918 6.04586 8.92975 5.84303 8.6968 5.70184C8.46384 5.56066 8.19637 5.48663 7.92397 5.48798Z" fill="#000421"/>
<path d="M15.9239 11.425C15.2317 11.425 14.555 11.2197 13.9795 10.8351C13.4039 10.4506 12.9553 9.90394 12.6904 9.2644C12.4255 8.62486 12.3561 7.92112 12.4912 7.24218C12.6262 6.56325 12.9596 5.93961 13.4491 5.45013C13.9386 4.96065 14.5623 4.62729 15.2412 4.49224C15.9201 4.3572 16.6239 4.4265 17.2634 4.6914C17.9029 4.95631 18.4495 5.40489 18.8341 5.98046C19.2187 6.55604 19.4239 7.23275 19.4239 7.92498C19.4239 8.85324 19.0553 9.74346 18.3989 10.3998C17.7425 11.0562 16.8522 11.425 15.9239 11.425ZM15.9239 5.42498C15.4295 5.42498 14.9461 5.57161 14.535 5.84631C14.1239 6.12101 13.8035 6.51144 13.6142 6.96826C13.425 7.42507 13.3756 7.92776 13.472 8.41272C13.5685 8.89767 13.8066 9.34311 14.1562 9.69274C14.5059 10.0424 14.9513 10.2805 15.4363 10.3769C15.9212 10.4734 16.4239 10.4239 16.8807 10.2347C17.3375 10.0455 17.728 9.72502 18.0027 9.3139C18.2774 8.90278 18.4239 8.41944 18.4239 7.92498C18.4239 7.26194 18.1606 6.62606 17.6918 6.15722C17.2229 5.68838 16.587 5.42498 15.9239 5.42498Z" fill="#000421"/>
<path d="M17.075 19.576H14.775C14.112 19.576 13.476 19.3126 13.0072 18.8438C12.5384 18.3749 12.275 17.739 12.275 17.076V14.776C12.275 14.113 12.5384 13.4771 13.0072 13.0082C13.476 12.5394 14.112 12.276 14.775 12.276H17.075C17.738 12.276 18.3739 12.5394 18.8428 13.0082C19.3116 13.4771 19.575 14.113 19.575 14.776V17.076C19.575 17.739 19.3116 18.3749 18.8428 18.8438C18.3739 19.3126 17.738 19.576 17.075 19.576ZM14.775 13.276C14.3772 13.276 13.9957 13.434 13.7144 13.7153C13.4331 13.9966 13.275 14.3782 13.275 14.776V17.076C13.275 17.4738 13.4331 17.8554 13.7144 18.1367C13.9957 18.418 14.3772 18.576 14.775 18.576H17.075C17.4728 18.576 17.8543 18.418 18.1356 18.1367C18.4169 17.8554 18.575 17.4738 18.575 17.076V14.776C18.575 14.3782 18.4169 13.9966 18.1356 13.7153C17.8543 13.434 17.4728 13.276 17.075 13.276H14.775Z" fill="#000421"/>
<path d="M11.212 18.5C11.3034 18.5956 11.3542 18.7228 11.3542 18.855C11.3542 18.9872 11.3034 19.1143 11.212 19.21C11.1643 19.256 11.1078 19.2921 11.046 19.3162C10.9842 19.3402 10.9183 19.3517 10.8521 19.35C10.7872 19.3518 10.7227 19.3403 10.6625 19.3162C10.6023 19.2921 10.5477 19.2559 10.502 19.21L7.922 16.63L5.34204 19.21C5.2969 19.2567 5.24233 19.2934 5.18201 19.3175C5.12168 19.3416 5.05686 19.3527 4.99194 19.35C4.92714 19.3518 4.86268 19.3403 4.80249 19.3162C4.7423 19.2921 4.68767 19.2559 4.64197 19.21C4.5951 19.1635 4.55798 19.1082 4.53259 19.0473C4.50721 18.9864 4.49414 18.921 4.49414 18.855C4.49414 18.789 4.50721 18.7236 4.53259 18.6627C4.55798 18.6018 4.5951 18.5465 4.64197 18.5L7.22205 15.93L4.64197 13.35C4.5951 13.3035 4.55798 13.2482 4.53259 13.1873C4.50721 13.1263 4.49414 13.061 4.49414 12.995C4.49414 12.929 4.50721 12.8636 4.53259 12.8027C4.55798 12.7417 4.5951 12.6865 4.64197 12.64C4.73543 12.5484 4.86107 12.4971 4.99194 12.4971C5.12282 12.4971 5.24858 12.5484 5.34204 12.64L7.922 15.22L10.502 12.64C10.5961 12.5459 10.7239 12.4929 10.8571 12.4929C10.9902 12.4929 11.1179 12.5459 11.212 12.64C11.3062 12.7342 11.359 12.8618 11.359 12.995C11.359 13.1281 11.3062 13.2558 11.212 13.35L8.63196 15.93L11.212 18.5Z" fill="#000421"/>
</svg>
