<svg width="24" height="24" viewBox="0 0 24 24" fill="none" xmlns="http://www.w3.org/2000/svg">
<path d="M17.9971 19.5H6.00208C5.33944 19.4987 4.70427 19.2349 4.23572 18.7663C3.76716 18.2977 3.5034 17.6626 3.50208 17V7.00494C3.50208 6.3419 3.76541 5.70602 4.23425 5.23718C4.70309 4.76834 5.33903 4.50494 6.00208 4.50494H17.9971C18.6597 4.50627 19.2948 4.77009 19.7633 5.23865C20.2319 5.7072 20.4957 6.34231 20.4971 7.00494V17C20.4955 17.6626 20.2316 18.2975 19.7631 18.766C19.2946 19.2345 18.6596 19.4984 17.9971 19.5ZM6.00208 5.5C5.60425 5.5 5.22271 5.65803 4.94141 5.93933C4.6601 6.22064 4.50208 6.60218 4.50208 7V16.995C4.50208 17.3928 4.6601 17.7743 4.94141 18.0556C5.22271 18.3369 5.60425 18.495 6.00208 18.495H17.9971C18.3949 18.495 18.7764 18.3369 19.0577 18.0556C19.339 17.7743 19.4971 17.3928 19.4971 16.995V7C19.4971 6.60218 19.339 6.22064 19.0577 5.93933C18.7764 5.65803 18.3949 5.5 17.9971 5.5H6.00208Z" fill="#000421"/>
<path d="M20 8.5H4V9.5H20V8.5Z" fill="#000421"/>
<path d="M10 17.5H6C5.86739 17.5 5.74025 17.4473 5.64648 17.3535C5.55272 17.2597 5.5 17.1326 5.5 17C5.5 16.8674 5.55272 16.7402 5.64648 16.6464C5.74025 16.5527 5.86739 16.5 6 16.5H10C10.1326 16.5 10.2599 16.5527 10.3536 16.6464C10.4474 16.7402 10.5 16.8674 10.5 17C10.5 17.1326 10.4474 17.2597 10.3536 17.3535C10.2599 17.4473 10.1326 17.5 10 17.5Z" fill="#000421"/>
<path d="M14 17.5H12C11.8674 17.5 11.7403 17.4473 11.6465 17.3535C11.5527 17.2597 11.5 17.1326 11.5 17C11.5 16.8674 11.5527 16.7402 11.6465 16.6464C11.7403 16.5527 11.8674 16.5 12 16.5H14C14.1326 16.5 14.2599 16.5527 14.3536 16.6464C14.4474 16.7402 14.5 16.8674 14.5 17C14.5 17.1326 14.4474 17.2597 14.3536 17.3535C14.2599 17.4473 14.1326 17.5 14 17.5Z" fill="#000421"/>
</svg>
