<svg width="24" height="24" viewBox="0 0 24 24" fill="none" xmlns="http://www.w3.org/2000/svg">
<path d="M18 21.5H6C5.33696 21.5 4.70108 21.2366 4.23224 20.7678C3.7634 20.2989 3.5 19.663 3.5 19V5C3.5 4.33696 3.7634 3.70108 4.23224 3.23224C4.70108 2.7634 5.33696 2.5 6 2.5H18C18.663 2.5 19.2989 2.7634 19.7678 3.23224C20.2366 3.70108 20.5 4.33696 20.5 5V19C20.5 19.663 20.2366 20.2989 19.7678 20.7678C19.2989 21.2366 18.663 21.5 18 21.5ZM6 3.5C5.60218 3.5 5.22064 3.65803 4.93933 3.93933C4.65803 4.22064 4.5 4.60218 4.5 5V19C4.5 19.3978 4.65803 19.7794 4.93933 20.0607C5.22064 20.342 5.60218 20.5 6 20.5H18C18.3978 20.5 18.7794 20.342 19.0607 20.0607C19.342 19.7794 19.5 19.3978 19.5 19V5C19.5 4.60218 19.342 4.22064 19.0607 3.93933C18.7794 3.65803 18.3978 3.5 18 3.5H6Z" fill="#000421"/>
<path d="M12 9.5H8C7.86739 9.5 7.74019 9.44731 7.64642 9.35355C7.55266 9.25978 7.5 9.13261 7.5 9C7.5 8.86739 7.55266 8.74022 7.64642 8.64645C7.74019 8.55269 7.86739 8.5 8 8.5H12C12.1326 8.5 12.2598 8.55269 12.3536 8.64645C12.4473 8.74022 12.5 8.86739 12.5 9C12.5 9.13261 12.4473 9.25978 12.3536 9.35355C12.2598 9.44731 12.1326 9.5 12 9.5Z" fill="#000421"/>
<path d="M16 15.5H8C7.86739 15.5 7.74019 15.4473 7.64642 15.3535C7.55266 15.2598 7.5 15.1326 7.5 15C7.5 14.8674 7.55266 14.7402 7.64642 14.6465C7.74019 14.5527 7.86739 14.5 8 14.5H16C16.1326 14.5 16.2598 14.5527 16.3536 14.6465C16.4473 14.7402 16.5 14.8674 16.5 15C16.5 15.1326 16.4473 15.2598 16.3536 15.3535C16.2598 15.4473 16.1326 15.5 16 15.5Z" fill="#000421"/>
</svg>
