<svg width="41" height="40" viewBox="0 0 41 40" fill="none" xmlns="http://www.w3.org/2000/svg">
<path d="M30.6085 35.8332H10.5918C9.48817 35.8309 8.43052 35.391 7.65092 34.6099C6.87132 33.8287 6.43347 32.7701 6.43347 31.6665V8.32487C6.43347 7.22124 6.87132 6.16266 7.65092 5.3815C8.43052 4.60034 9.48817 4.16041 10.5918 4.1582H22.5568C23.6588 4.16105 24.7151 4.59818 25.4968 5.37484L33.5484 13.4282C33.936 13.8132 34.2433 14.2713 34.4525 14.776C34.6616 15.2807 34.7684 15.8219 34.7668 16.3682V31.6649C34.7673 32.7688 34.3296 33.8277 33.55 34.6092C32.7703 35.3908 31.7124 35.8309 30.6085 35.8332ZM10.5918 5.83316C9.9302 5.83537 9.29645 6.09978 8.82941 6.56838C8.36237 7.03698 8.10013 7.67156 8.10014 8.33316V31.6815C8.10013 32.3431 8.36237 32.9777 8.82941 33.4463C9.29645 33.9149 9.9302 34.1793 10.5918 34.1815H30.6085C31.2701 34.1793 31.9038 33.9149 32.3709 33.4463C32.8379 32.9777 33.1001 32.3431 33.1001 31.6815V16.3849C33.1013 16.0575 33.0374 15.7332 32.9121 15.4307C32.7867 15.1283 32.6025 14.8538 32.3702 14.6232L24.3185 6.56985C23.8499 6.10486 23.217 5.84317 22.5568 5.8415L10.5918 5.83316Z" fill="#A8A7B6"/>
<path d="M33.6334 15.8331H27.2668C26.1617 15.8331 25.1019 15.3941 24.3205 14.6127C23.5391 13.8313 23.1001 12.7715 23.1001 11.6664V5.31641H24.7668V11.6664C24.7668 12.3294 25.0301 12.9653 25.499 13.4342C25.9678 13.903 26.6037 14.1664 27.2668 14.1664H33.6334V15.8331Z" fill="#A8A7B6"/>
<path d="M25.4901 5.37733L24.3118 6.55566L32.3775 14.6214L33.5558 13.443L25.4901 5.37733Z" fill="#A8A7B6"/>
<path d="M20.6001 17.4997H13.9334C13.7124 17.4997 13.5004 17.4119 13.3441 17.2556C13.1879 17.0994 13.1001 16.8874 13.1001 16.6663C13.1001 16.4453 13.1879 16.2334 13.3441 16.0771C13.5004 15.9208 13.7124 15.833 13.9334 15.833H20.6001C20.8211 15.833 21.0331 15.9208 21.1894 16.0771C21.3457 16.2334 21.4334 16.4453 21.4334 16.6663C21.4334 16.8874 21.3457 17.0994 21.1894 17.2556C21.0331 17.4119 20.8211 17.4997 20.6001 17.4997Z" fill="#A8A7B6"/>
<path d="M27.2668 27.4997H13.9334C13.7124 27.4997 13.5004 27.4119 13.3441 27.2556C13.1879 27.0994 13.1001 26.8874 13.1001 26.6663C13.1001 26.4453 13.1879 26.2334 13.3441 26.0771C13.5004 25.9208 13.7124 25.833 13.9334 25.833H27.2668C27.4878 25.833 27.6998 25.9208 27.8561 26.0771C28.0123 26.2334 28.1001 26.4453 28.1001 26.6663C28.1001 26.8874 28.0123 27.0994 27.8561 27.2556C27.6998 27.4119 27.4878 27.4997 27.2668 27.4997Z" fill="#A8A7B6"/>
</svg>
