<svg width="24" height="17" viewBox="0 0 24 17" fill="none" xmlns="http://www.w3.org/2000/svg">
<path d="M24 8.25C24 8.25 19.5 0 12 0C4.5 0 0 8.25 0 8.25C0 8.25 4.5 16.5 12 16.5C19.5 16.5 24 8.25 24 8.25ZM1.7595 8.25C2.48477 7.14769 3.31896 6.12103 4.2495 5.1855C6.18 3.252 8.82 1.5 12 1.5C15.18 1.5 17.8185 3.252 19.752 5.1855C20.6825 6.12103 21.5167 7.14769 22.242 8.25C22.155 8.3805 22.059 8.5245 21.9495 8.682C21.447 9.402 20.7045 10.362 19.752 11.3145C17.8185 13.248 15.1785 15 12 15C8.82 15 6.1815 13.248 4.248 11.3145C3.31747 10.379 2.48328 9.35231 1.758 8.25H1.7595Z" fill="black"/>
<path d="M12 4.5C11.0054 4.5 10.0516 4.89509 9.34835 5.59835C8.64509 6.30161 8.25 7.25544 8.25 8.25C8.25 9.24456 8.64509 10.1984 9.34835 10.9017C10.0516 11.6049 11.0054 12 12 12C12.9946 12 13.9484 11.6049 14.6517 10.9017C15.3549 10.1984 15.75 9.24456 15.75 8.25C15.75 7.25544 15.3549 6.30161 14.6517 5.59835C13.9484 4.89509 12.9946 4.5 12 4.5ZM6.75 8.25C6.75 6.85761 7.30312 5.52226 8.28769 4.53769C9.27226 3.55312 10.6076 3 12 3C13.3924 3 14.7277 3.55312 15.7123 4.53769C16.6969 5.52226 17.25 6.85761 17.25 8.25C17.25 9.64239 16.6969 10.9777 15.7123 11.9623C14.7277 12.9469 13.3924 13.5 12 13.5C10.6076 13.5 9.27226 12.9469 8.28769 11.9623C7.30312 10.9777 6.75 9.64239 6.75 8.25Z" fill="black"/>
</svg>
