<svg width="155" height="139" viewBox="0 0 155 139" fill="none" xmlns="http://www.w3.org/2000/svg">
<g opacity="0.2">
<path d="M59.2305 -0.537998C59.2305 29.0911 32.5199 53.2411 -0.599579 53.2411C-33.719 53.2411 -60.4297 29.0911 -60.4297 -0.537998C-60.4297 -30.1671 -33.719 -54.3171 -0.599579 -54.3171C32.5199 -54.3171 59.2305 -30.1671 59.2305 -0.537998Z" stroke="white" stroke-width="1.5"/>
<path d="M90.6467 -0.538048C90.6467 44.7066 49.8725 81.5155 -0.595291 81.5155C-51.063 81.5155 -91.8373 44.7066 -91.8373 -0.538048C-91.8373 -45.7827 -51.063 -82.5916 -0.595291 -82.5916C49.8725 -82.5916 90.6467 -45.7827 90.6467 -0.538048Z" stroke="white" stroke-width="1.5"/>
<path d="M122.049 -0.538025C122.049 60.3221 67.2116 109.79 -0.604485 109.79C-68.4205 109.79 -123.258 60.3221 -123.258 -0.538025C-123.258 -61.3981 -68.4205 -110.866 -0.604485 -110.866C67.2116 -110.866 122.049 -61.3981 122.049 -0.538025Z" stroke="white" stroke-width="1.5"/>
<path d="M153.465 -0.538025C153.465 75.9376 84.5641 138.064 -0.600281 138.064C-85.7646 138.064 -154.666 75.9376 -154.666 -0.538025C-154.666 -77.0136 -85.7646 -139.14 -0.600281 -139.14C84.5641 -139.14 153.465 -77.0136 153.465 -0.538025Z" stroke="white" stroke-width="1.5"/>
</g>
</svg>
