<svg width="47" height="47" viewBox="0 0 47 47" fill="none" xmlns="http://www.w3.org/2000/svg">
<path d="M17.114 20.3856C15.7699 20.3856 14.456 19.9871 13.3384 19.2403C12.2209 18.4936 11.3499 17.4321 10.8355 16.1904C10.3211 14.9486 10.1866 13.5823 10.4488 12.264C10.711 10.9457 11.3583 9.73473 12.3087 8.78431C13.2591 7.8339 14.47 7.18675 15.7883 6.92453C17.1065 6.66232 18.473 6.79687 19.7147 7.31123C20.9565 7.82559 22.0178 8.69659 22.7646 9.81416C23.5113 10.9317 23.9099 12.2457 23.9099 13.5898C23.9099 15.3921 23.1938 17.1206 21.9194 18.3951C20.6449 19.6696 18.9164 20.3856 17.114 20.3856ZM17.114 8.7356C16.154 8.7356 15.2155 9.02029 14.4172 9.55368C13.619 10.0871 12.9968 10.8451 12.6294 11.7321C12.262 12.6191 12.1658 13.5952 12.3531 14.5368C12.5404 15.4784 13.0028 16.3433 13.6816 17.0222C14.3605 17.701 15.2254 18.1634 16.167 18.3507C17.1086 18.538 18.0847 18.4418 18.9717 18.0744C19.8587 17.707 20.6167 17.0848 21.1501 16.2866C21.6835 15.4883 21.9682 14.5498 21.9682 13.5898C21.9682 12.3024 21.4568 11.0677 20.5464 10.1574C19.6361 9.24703 18.4014 8.7356 17.114 8.7356Z" fill="#A8A7B6"/>
<path d="M35.8899 39.8022H10.7143C9.87278 39.8017 9.05016 39.5527 8.34965 39.0865C7.64914 38.6202 7.10199 37.9574 6.77678 37.1813C6.45157 36.4052 6.36288 35.5504 6.52175 34.724C6.68062 33.8977 7.07995 33.1366 7.66975 32.5364L12.7997 27.3211C13.1944 26.9176 13.6656 26.5971 14.1857 26.3781C14.7058 26.159 15.2643 26.0459 15.8287 26.0454H15.8442C16.4054 26.0437 16.9612 26.1536 17.4795 26.3686C17.9979 26.5836 18.4683 26.8994 18.8635 27.2978C19.1116 27.557 19.4152 27.7565 19.7515 27.8816C20.0878 28.0067 20.448 28.0541 20.8052 28.0201C21.1491 27.9856 21.481 27.875 21.7768 27.6964C22.0727 27.5177 22.3251 27.2754 22.5157 26.9871L25.374 22.6591C25.7622 22.0695 26.2907 21.5857 26.9123 21.2512C27.5339 20.9167 28.229 20.7419 28.9349 20.7427C29.6408 20.7415 30.3358 20.9157 30.9577 21.2495C31.5796 21.5834 32.1087 22.0664 32.4978 22.6553L39.4568 33.1733C39.8827 33.817 40.1263 34.5639 40.1616 35.3349C40.197 36.1059 40.0227 36.8721 39.6575 37.552C39.2922 38.2319 38.7496 38.8001 38.0872 39.1963C37.4249 39.5925 36.6675 39.8019 35.8957 39.8022H35.8899ZM15.8442 27.9871C15.5362 27.9873 15.2314 28.049 14.9477 28.1688C14.6639 28.2885 14.4069 28.4637 14.1918 28.6842L9.06201 33.8975C8.74039 34.2249 8.52256 34.6399 8.43592 35.0906C8.34928 35.5412 8.39762 36.0075 8.57493 36.4308C8.75225 36.8541 9.05061 37.2155 9.43259 37.4699C9.81457 37.7242 10.2632 37.8601 10.7221 37.8605H35.8978C36.3183 37.86 36.7309 37.7455 37.0917 37.5295C37.4526 37.3135 37.7481 37.0038 37.9471 36.6333C38.1462 36.2629 38.2413 35.8455 38.2223 35.4254C38.2033 35.0052 38.0711 34.598 37.8394 34.247L30.8805 23.729C30.6707 23.4058 30.3828 23.1406 30.0435 22.958C29.7041 22.7754 29.3242 22.6813 28.9389 22.6843C28.5535 22.6813 28.1736 22.7754 27.8342 22.958C27.4949 23.1406 27.207 23.4058 26.9972 23.729L24.139 28.0551C23.7898 28.5836 23.3274 29.0277 22.7853 29.3555C22.2433 29.6833 21.6352 29.8864 21.005 29.9502C20.3747 30.0139 19.7381 29.9368 19.1414 29.7242C18.5447 29.5116 18.0027 29.1689 17.5548 28.721C17.3341 28.4893 17.0688 28.3049 16.7748 28.1787C16.4807 28.0526 16.1642 27.9873 15.8442 27.9871Z" fill="#A8A7B6"/>
</svg>
