<svg width="41" height="40" viewBox="0 0 41 40" fill="none" xmlns="http://www.w3.org/2000/svg">
<path d="M30.181 5C33.1725 5 35.5977 7.42512 35.5977 10.4167V29.5833C35.5977 32.5749 33.1725 35 30.181 35H11.0143C8.02278 35 5.59766 32.5749 5.59766 29.5833V10.4167C5.59766 7.42512 8.02278 5 11.0143 5H30.181ZM31.1486 32.3357L21.4721 22.858C21.0304 22.4254 20.3479 22.3861 19.8623 22.74L19.723 22.858L10.0451 32.3351C10.3483 32.4419 10.6745 32.5 11.0143 32.5H30.181C30.5201 32.5 30.8458 32.4421 31.1486 32.3357L21.4721 22.858L31.1486 32.3357ZM30.181 7.5H11.0143C9.40349 7.5 8.09766 8.80584 8.09766 10.4167V29.5833C8.09766 29.9307 8.15837 30.2638 8.26976 30.5728L17.974 21.0717C19.3624 19.7122 21.5434 19.6475 23.0073 20.8776L23.2213 21.0719L32.9249 30.5744C33.0367 30.265 33.0977 29.9313 33.0977 29.5833V10.4167C33.0977 8.80584 31.7918 7.5 30.181 7.5ZM26.0178 10.8333C28.0909 10.8333 29.7714 12.5138 29.7714 14.5869C29.7714 16.6599 28.0909 18.3404 26.0178 18.3404C23.9448 18.3404 22.2643 16.6599 22.2643 14.5869C22.2643 12.5138 23.9448 10.8333 26.0178 10.8333ZM26.0178 13.3333C25.3255 13.3333 24.7643 13.8946 24.7643 14.5869C24.7643 15.2792 25.3255 15.8404 26.0178 15.8404C26.7101 15.8404 27.2714 15.2792 27.2714 14.5869C27.2714 13.8946 26.7101 13.3333 26.0178 13.3333Z" fill="#A8A7B6"/>
</svg>
