<svg width="24" height="24" viewBox="0 0 24 24" fill="none" xmlns="http://www.w3.org/2000/svg">
<path d="M20.198 12.9501L18.408 14.7501C18.3092 14.8393 18.1811 14.8891 18.048 14.8901C17.9179 14.889 17.7929 14.839 17.698 14.7501C17.6511 14.7036 17.6139 14.6483 17.5886 14.5873C17.5632 14.5264 17.5501 14.4611 17.5501 14.3951C17.5501 14.3291 17.5632 14.2637 17.5886 14.2028C17.6139 14.1419 17.6511 14.0866 17.698 14.0401L19.228 12.5001H8.90802C8.77541 12.5001 8.64821 12.4474 8.55444 12.3536C8.46068 12.2599 8.40802 12.1327 8.40802 12.0001C8.40802 11.8675 8.46068 11.7403 8.55444 11.6465C8.64821 11.5528 8.77541 11.5001 8.90802 11.5001H19.228L17.698 9.96008C17.6511 9.9136 17.6139 9.85829 17.5886 9.79736C17.5632 9.73643 17.5501 9.67111 17.5501 9.6051C17.5501 9.5391 17.5632 9.47371 17.5886 9.41278C17.6139 9.35185 17.6511 9.29654 17.698 9.25006C17.7935 9.15851 17.9207 9.10742 18.053 9.10742C18.1853 9.10742 18.3125 9.15851 18.408 9.25006L20.198 11.05C20.4479 11.3031 20.588 11.6444 20.588 12.0001C20.588 12.3557 20.4479 12.697 20.198 12.9501Z" fill="#D62121"/>
<path d="M11.911 20.501H5.91101C5.24797 20.501 4.61209 20.2376 4.14325 19.7687C3.67441 19.2999 3.41101 18.664 3.41101 18.001V6.00098C3.41101 5.33794 3.67441 4.70206 4.14325 4.23322C4.61209 3.76437 5.24797 3.50098 5.91101 3.50098H11.911C12.0436 3.50098 12.1708 3.55363 12.2646 3.6474C12.3584 3.74117 12.411 3.86837 12.411 4.00098C12.411 4.13358 12.3584 4.26072 12.2646 4.35449C12.1708 4.44826 12.0436 4.50098 11.911 4.50098H5.91101C5.51319 4.50098 5.13165 4.659 4.85034 4.94031C4.56904 5.22161 4.41101 5.60315 4.41101 6.00098V18.001C4.41101 18.3988 4.56904 18.7803 4.85034 19.0616C5.13165 19.3429 5.51319 19.501 5.91101 19.501H11.911C12.0436 19.501 12.1708 19.5536 12.2646 19.6474C12.3584 19.7412 12.411 19.8684 12.411 20.001C12.411 20.1336 12.3584 20.2607 12.2646 20.3545C12.1708 20.4483 12.0436 20.501 11.911 20.501Z" fill="#D62121"/>
</svg>
