<svg width="133" height="129" viewBox="0 0 133 129" fill="none" xmlns="http://www.w3.org/2000/svg">
<mask id="mask0" style="mask-type:alpha" maskUnits="userSpaceOnUse" x="0" y="0" width="133" height="129">
<rect width="133" height="129" fill="#C4C4C4"/>
</mask>
<g mask="url(#mask0)">
<g opacity="0.2">
<path d="M49.426 -0.48494C49.426 26.2242 27.096 47.9149 -0.497959 47.9149C-28.0919 47.9149 -50.4219 26.2242 -50.4219 -0.48494C-50.4219 -27.194 -28.0919 -48.8848 -0.497959 -48.8848C27.096 -48.8848 49.426 -27.194 49.426 -0.48494Z" stroke="white" stroke-width="1.5"/>
<path d="M75.7032 -0.484985C75.7032 40.2992 41.6094 73.4 -0.49604 73.4C-42.6015 73.4 -76.6953 40.2992 -76.6953 -0.484985C-76.6953 -41.2691 -42.6015 -74.37 -0.49604 -74.37C41.6094 -74.37 75.7032 -41.2691 75.7032 -0.484985Z" stroke="white" stroke-width="1.5"/>
<path d="M101.973 -0.484962C101.973 54.3742 56.115 98.8852 -0.501923 98.8852C-57.1189 98.8852 -102.977 54.3742 -102.977 -0.484962C-102.977 -55.3442 -57.1189 -99.8551 -0.501923 -99.8551C56.115 -99.8551 101.973 -55.3442 101.973 -0.484962Z" stroke="white" stroke-width="1.5"/>
<path d="M128.25 -0.484947C128.25 68.4493 70.6284 124.37 -0.5 124.37C-71.6284 124.37 -129.25 68.4493 -129.25 -0.484947C-129.25 -69.4192 -71.6284 -125.34 -0.5 -125.34C70.6284 -125.34 128.25 -69.4192 128.25 -0.484947Z" stroke="white" stroke-width="1.5"/>
</g>
</g>
</svg>
