<svg width="32" height="32" viewBox="0 0 32 32" fill="none" xmlns="http://www.w3.org/2000/svg">
<g clip-path="url(#clip0)">
<path d="M26.9998 17.7489H4.99964C4.71473 17.6801 4.46123 17.5175 4.27992 17.2872C4.09862 17.0569 4.00004 16.7723 4.00004 16.4792C4.00004 16.1861 4.09862 15.9015 4.27992 15.6712C4.46123 15.4409 4.71473 15.2782 4.99964 15.2094H26.9998C27.2847 15.2782 27.5382 15.4409 27.7195 15.6712C27.9008 15.9015 27.9994 16.1861 27.9994 16.4792C27.9994 16.7723 27.9008 17.0569 27.7195 17.2872C27.5382 17.5175 27.2847 17.6801 26.9998 17.7489Z" fill="white"/>
<path d="M27.0063 11.5395H5.00613C4.70707 11.4994 4.43539 11.3444 4.24871 11.1074C4.06203 10.8703 3.97504 10.5699 4.0062 10.2698C3.97504 9.96964 4.06203 9.66919 4.24871 9.43213C4.43539 9.19508 4.70707 9.04008 5.00613 9H27.0063C27.3053 9.04008 27.577 9.19508 27.7637 9.43213C27.9504 9.66919 28.0373 9.96964 28.0062 10.2698C28.0373 10.5699 27.9504 10.8703 27.7637 11.1074C27.577 11.3444 27.3053 11.4994 27.0063 11.5395Z" fill="white"/>
<path d="M26.9998 23.9562H4.99964C4.71473 23.8873 4.46123 23.7247 4.27992 23.4944C4.09862 23.2641 4.00004 22.9795 4.00004 22.6864C4.00004 22.3933 4.09862 22.1087 4.27992 21.8784C4.46123 21.6481 4.71473 21.4854 4.99964 21.4166H26.9998C27.2847 21.4854 27.5382 21.6481 27.7195 21.8784C27.9008 22.1087 27.9994 22.3933 27.9994 22.6864C27.9994 22.9795 27.9008 23.2641 27.7195 23.4944C27.5382 23.7247 27.2847 23.8873 26.9998 23.9562Z" fill="white"/>
</g>
<rect x="0.5" y="0.5" width="31" height="31" rx="3.5" stroke="white" stroke-opacity="0.8"/>
<defs>
<clipPath id="clip0">
<rect width="24" height="14.9562" fill="white" transform="translate(4 9)"/>
</clipPath>
</defs>
</svg>
