<svg width="32" height="32" viewBox="0 0 32 32" fill="none" xmlns="http://www.w3.org/2000/svg">
<g clip-path="url(#clip0)">
<path d="M16.0022 28.6153C15.3742 28.6125 14.7638 28.4077 14.2611 28.0314C13.7585 27.655 13.3902 27.127 13.2107 26.5252C13.1764 26.4265 13.1626 26.3217 13.17 26.2175C13.1775 26.1132 13.2061 26.0116 13.2542 25.9187C13.3022 25.8259 13.3687 25.744 13.4494 25.6777C13.5302 25.6114 13.6237 25.5622 13.7241 25.5332C13.8245 25.5042 13.9297 25.4959 14.0334 25.5089C14.1371 25.5218 14.2371 25.5557 14.3273 25.6086C14.4174 25.6614 14.4958 25.7321 14.5578 25.8163C14.6197 25.9005 14.6638 25.9965 14.6875 26.0983C14.7714 26.3822 14.9448 26.6312 15.1818 26.8083C15.4189 26.9855 15.7069 27.0814 16.0029 27.0814C16.2988 27.0814 16.5868 26.9855 16.8239 26.8083C17.061 26.6312 17.2344 26.3822 17.3182 26.0983C17.3439 25.9988 17.3892 25.9053 17.4516 25.8236C17.514 25.7418 17.5921 25.6734 17.6814 25.6224C17.7707 25.5715 17.8693 25.5391 17.9714 25.5269C18.0735 25.5148 18.177 25.523 18.2758 25.5516C18.3746 25.5802 18.4666 25.6285 18.5464 25.6933C18.6263 25.7581 18.6923 25.838 18.7406 25.9288C18.7889 26.0196 18.8184 26.1192 18.8275 26.2216C18.8367 26.3241 18.8251 26.4274 18.7936 26.5252C18.6143 27.1271 18.2461 27.655 17.7434 28.0314C17.2407 28.4078 16.6302 28.6127 16.0022 28.6153Z" fill="#F8F8F8"/>
<path d="M16.0065 7.84118C15.8023 7.84118 15.6066 7.7601 15.4622 7.61575C15.3178 7.4714 15.2368 7.27558 15.2368 7.07144V4.76394C15.2323 4.66017 15.2489 4.5565 15.2855 4.4593C15.3222 4.36211 15.3781 4.2731 15.4499 4.19809C15.5218 4.12308 15.608 4.06345 15.7036 4.02268C15.7991 3.9819 15.9019 3.96085 16.0058 3.96085C16.1096 3.96085 16.2124 3.9819 16.308 4.02268C16.4035 4.06345 16.4898 4.12308 16.5616 4.19809C16.6335 4.2731 16.6894 4.36211 16.726 4.4593C16.7627 4.5565 16.7792 4.66017 16.7748 4.76394V7.07144C16.7748 7.27533 16.6939 7.47109 16.5498 7.6154C16.4058 7.75971 16.2104 7.84081 16.0065 7.84118Z" fill="#F8F8F8"/>
<path d="M25.2303 23.9998H6.77543C6.63125 23.9997 6.49 23.9589 6.36776 23.8824C6.24553 23.8059 6.14723 23.6969 6.08406 23.5673C6.02089 23.4377 5.99538 23.2929 6.01046 23.1495C6.02554 23.0061 6.08059 22.8699 6.16933 22.7563C6.16933 22.7463 7.54518 20.8056 7.54518 14.7688C7.54518 12.5247 8.43661 10.3727 10.0234 8.78586C11.6102 7.19907 13.7624 6.30746 16.0064 6.30746C18.2505 6.30746 20.4027 7.19907 21.9895 8.78586C23.5763 10.3727 24.4677 12.5247 24.4677 14.7688C24.4677 21.2239 25.7055 22.6195 25.7183 22.6295C25.8427 22.7293 25.933 22.8652 25.9768 23.0185C26.0206 23.1719 26.0157 23.3353 25.9628 23.4857C25.9098 23.6361 25.8114 23.7663 25.6812 23.8584C25.551 23.9505 25.3955 23.9999 25.236 23.9998H25.2303ZM8.01467 22.4617H23.9156C23.1314 19.9765 22.7966 17.3715 22.9268 14.7688C22.9268 12.9326 22.1974 11.1715 20.8991 9.8731C19.6007 8.57474 17.8398 7.84557 16.0036 7.84557C14.1674 7.84557 12.4065 8.57474 11.1081 9.8731C9.80976 11.1715 9.08037 12.9326 9.08037 14.7688C9.18366 17.3744 8.82132 19.9777 8.01042 22.4561L8.01467 22.4617Z" fill="#F8F8F8"/>
</g>
<rect x="0.5" y="0.5" width="31" height="31" rx="3.5" stroke="white" stroke-opacity="0.8"/>
<defs>
<clipPath id="clip0">
<rect width="20" height="24.6141" fill="white" transform="translate(6 4)"/>
</clipPath>
</defs>
</svg>
