<svg width="32" height="32" viewBox="0 0 32 32" fill="none" xmlns="http://www.w3.org/2000/svg">
<g clip-path="url(#clip0)">
<path d="M20.6855 6.2818C20.8492 6.44597 20.9487 6.66341 20.9657 6.89465C20.9828 7.12589 20.9164 7.35559 20.7786 7.54204L20.6855 7.65065L12.3379 15.9982L20.6855 24.3458C20.8495 24.5098 20.9492 24.7272 20.9663 24.9586C20.9834 25.1899 20.9168 25.4197 20.7786 25.606L20.6855 25.7146C20.5213 25.8784 20.3039 25.9778 20.0726 25.9949C19.8414 26.012 19.6117 25.9456 19.4252 25.8077L19.3166 25.7146L10.2846 16.6826C10.1206 16.5186 10.0209 16.3012 10.0038 16.0698C9.98673 15.8385 10.0534 15.6087 10.1915 15.4224L10.2846 15.3138L19.3166 6.2818C19.4065 6.19183 19.5131 6.12045 19.6306 6.07175C19.748 6.02305 19.8739 5.99799 20.001 5.99799C20.1282 5.99799 20.2541 6.02305 20.3715 6.07175C20.489 6.12045 20.5956 6.19183 20.6855 6.2818Z" fill="white"/>
</g>
<rect x="0.5" y="0.5" width="31" height="31" rx="3.5" stroke="white" stroke-opacity="0.8"/>
<defs>
<clipPath id="clip0">
<rect width="10.968" height="20" fill="white" transform="translate(10 6)"/>
</clipPath>
</defs>
</svg>
