<svg width="24" height="24" viewBox="0 0 24 24" fill="none" xmlns="http://www.w3.org/2000/svg">
<path d="M17.56 20.17H6.43598C6.07044 20.1699 5.71755 20.0363 5.44355 19.7944C5.16955 19.5524 4.99333 19.2187 4.948 18.856L3.47095 7.04304C3.42829 6.70381 3.5028 6.36019 3.68213 6.0691C3.86147 5.778 4.13487 5.55692 4.45704 5.44245C4.77921 5.32798 5.13082 5.32702 5.45362 5.4397C5.77642 5.55239 6.05106 5.77192 6.232 6.06202L8.12696 9.09504C8.17646 9.17408 8.24706 9.23768 8.33082 9.27869C8.41457 9.31971 8.50817 9.33652 8.60096 9.32715C8.69374 9.31779 8.78203 9.28263 8.8559 9.22571C8.92977 9.16879 8.98628 9.09234 9.01899 9.00501L10.595 4.805C10.7005 4.5189 10.8914 4.27218 11.1418 4.09815C11.3922 3.92412 11.6901 3.83122 11.995 3.83204C12.2999 3.83122 12.5977 3.92412 12.8482 4.09815C13.0986 4.27218 13.2894 4.5189 13.395 4.805L14.971 9.00501C15.0023 9.09317 15.0584 9.17044 15.1326 9.22754C15.2067 9.28465 15.2957 9.31919 15.389 9.32703C15.4817 9.33651 15.5751 9.31993 15.6589 9.27912C15.7426 9.2383 15.8133 9.17486 15.863 9.09601L17.763 6.06202C17.9442 5.77252 18.2187 5.55352 18.5413 5.44123C18.8638 5.32894 19.215 5.33008 19.5368 5.44446C19.8586 5.55884 20.1317 5.77965 20.311 6.07032C20.4904 6.36098 20.5651 6.70412 20.523 7.04304L19.046 18.858C19.0002 19.2201 18.8241 19.553 18.5506 19.7945C18.2771 20.036 17.9249 20.1695 17.56 20.17ZM4.97498 6.35206C4.91166 6.35257 4.84886 6.36336 4.78901 6.38404C4.67924 6.41879 4.58561 6.49182 4.52521 6.58985C4.46482 6.68788 4.44164 6.80436 4.45997 6.91804L5.93696 18.732C5.95237 18.8534 6.0118 18.965 6.10395 19.0455C6.1961 19.1261 6.31457 19.17 6.43696 19.169H17.56C17.6825 19.17 17.8011 19.1259 17.8933 19.0452C17.9855 18.9644 18.0448 18.8526 18.06 18.731L19.537 6.91602C19.5513 6.80295 19.5266 6.68836 19.4669 6.59125C19.4073 6.49415 19.3162 6.42036 19.2089 6.38209C19.1015 6.34381 18.9843 6.34335 18.8767 6.3808C18.769 6.41826 18.6774 6.49137 18.6169 6.58802L16.717 9.62201C16.5687 9.85918 16.357 10.0502 16.1058 10.1733C15.8547 10.2965 15.5741 10.3471 15.2957 10.3192C15.0174 10.2913 14.7524 10.1862 14.5306 10.0156C14.3089 9.84508 14.1393 9.61588 14.041 9.35401L12.466 5.154C12.4302 5.0588 12.3662 4.97684 12.2826 4.91895C12.199 4.86106 12.0997 4.83002 11.998 4.83002C11.8963 4.83002 11.797 4.86106 11.7134 4.91895C11.6298 4.97684 11.5658 5.0588 11.53 5.154L9.95399 9.35401C9.8564 9.6164 9.68696 9.84608 9.46503 10.0167C9.2431 10.1874 8.97763 10.2921 8.69898 10.319C8.41989 10.35 8.13775 10.3006 7.88581 10.1766C7.63387 10.0526 7.42263 9.85911 7.27698 9.61902L5.37696 6.586C5.33688 6.51537 5.27892 6.45655 5.20887 6.41547C5.13882 6.37439 5.05918 6.35255 4.97797 6.35206H4.97498Z" fill="#000421"/>
</svg>
