<svg width="25" height="24" viewBox="0 0 25 24" fill="none" xmlns="http://www.w3.org/2000/svg">
<path d="M21.3164 15.08L15.9177 20.46C15.5732 20.8029 15.1641 21.0749 14.7139 21.2605C14.2637 21.446 13.7811 21.5416 13.2938 21.5416C12.8064 21.5416 12.3238 21.446 11.8735 21.2605C11.4233 21.0749 11.0143 20.8029 10.6698 20.46L4.34614 14.16C3.96029 13.7238 3.6713 13.2116 3.49806 12.6567C3.32483 12.1018 3.27124 11.5169 3.34079 10.94L4.41652 4.49002C4.46356 4.27436 4.57198 4.07672 4.72885 3.92068C4.88572 3.76464 5.08443 3.6568 5.30123 3.61001L11.7857 2.53002C12.3656 2.46336 12.953 2.51786 13.5105 2.69006C14.0679 2.86226 14.5831 3.14836 15.0229 3.53002L21.3164 9.80001C21.6715 10.143 21.9538 10.5534 22.1466 11.0069C22.3393 11.4603 22.4387 11.9477 22.4387 12.44C22.4387 12.9323 22.3393 13.4197 22.1466 13.8732C21.9538 14.3266 21.6715 14.737 21.3164 15.08Z" stroke="white" stroke-width="1.5" stroke-miterlimit="10" stroke-linecap="round"/>
<path d="M10.6269 11.93C11.8151 11.93 12.7784 10.9719 12.7784 9.79001C12.7784 8.60812 11.8151 7.64999 10.6269 7.64999C9.43868 7.64999 8.47543 8.60812 8.47543 9.79001C8.47543 10.9719 9.43868 11.93 10.6269 11.93Z" stroke="white" stroke-width="1.5" stroke-miterlimit="10" stroke-linecap="round"/>
</svg>
