<svg width="24" height="24" viewBox="0 0 24 24" fill="none" xmlns="http://www.w3.org/2000/svg">
<path d="M12 12.5C11.11 12.5 10.24 12.2361 9.49993 11.7416C8.75991 11.2472 8.18311 10.5443 7.84252 9.72204C7.50193 8.89977 7.41284 7.99497 7.58648 7.12206C7.76011 6.24915 8.18865 5.44732 8.81798 4.81798C9.44732 4.18865 10.2491 3.76011 11.1221 3.58648C11.995 3.41284 12.8998 3.50193 13.722 3.84252C14.5443 4.18311 15.2472 4.75991 15.7416 5.49993C16.2361 6.23995 16.5 7.10997 16.5 7.99999C16.4987 9.19306 16.0242 10.3369 15.1805 11.1805C14.3369 12.0242 13.1931 12.4987 12 12.5ZM12 4.49999C11.3078 4.49999 10.631 4.70525 10.0555 5.08983C9.4799 5.47442 9.03132 6.02103 8.76641 6.66057C8.5015 7.30011 8.4322 8.00386 8.56725 8.68279C8.7023 9.36172 9.03565 9.98536 9.52514 10.4748C10.0146 10.9643 10.6383 11.2977 11.3172 11.4327C11.9961 11.5678 12.6999 11.4985 13.3394 11.2336C13.9789 10.9687 14.5256 10.5201 14.9101 9.94451C15.2947 9.36894 15.5 8.69222 15.5 7.99999C15.5 7.07173 15.1312 6.18151 14.4748 5.52514C13.8185 4.86876 12.9282 4.49999 12 4.49999Z" fill="#000421"/>
<path d="M18 20.5H6C5.33696 20.5 4.70108 20.2366 4.23224 19.7678C3.7634 19.2989 3.5 18.663 3.5 18C3.50132 16.8069 3.97583 15.6631 4.81946 14.8195C5.66308 13.9758 6.80693 13.5013 8 13.5H16C17.1931 13.5013 18.3369 13.9758 19.1805 14.8195C20.0242 15.6631 20.4987 16.8069 20.5 18C20.5 18.663 20.2366 19.2989 19.7678 19.7678C19.2989 20.2366 18.663 20.5 18 20.5ZM8 14.5C7.07174 14.5 6.18152 14.8688 5.52515 15.5251C4.86877 16.1815 4.5 17.0717 4.5 18C4.5 18.3978 4.65803 18.7794 4.93933 19.0607C5.22064 19.342 5.60218 19.5 6 19.5H18C18.3978 19.5 18.7794 19.342 19.0607 19.0607C19.342 18.7794 19.5 18.3978 19.5 18C19.5 17.0717 19.1312 16.1815 18.4749 15.5251C17.8185 14.8688 16.9283 14.5 16 14.5H8Z" fill="#000421"/>
</svg>
