<svg width="25" height="26" viewBox="0 0 25 26" fill="none" xmlns="http://www.w3.org/2000/svg">
<path d="M22.0319 6.94644L22.0449 9.3664C22.0533 10.9464 21.0587 11.9517 19.4787 11.9602L16.0588 11.9786L16.0213 4.98865C16.0153 3.87867 16.9205 2.9738 18.0305 2.96785C19.1205 2.972 20.1229 3.40663 20.8467 4.12275C21.5706 4.84888 22.026 5.84645 22.0319 6.94644Z" stroke="white" stroke-width="1.5" stroke-miterlimit="10" stroke-linecap="round" stroke-linejoin="round"/>
<path d="M2.03753 8.05372L2.11263 22.0535C2.11709 22.8835 3.05959 23.3485 3.7169 22.8449L5.42001 21.5558C5.8184 21.2536 6.3786 21.2906 6.74053 21.6487L8.40946 23.3098C8.80155 23.6977 9.44154 23.6942 9.82944 23.3021L11.5004 21.6131C11.8485 21.2613 12.4083 21.2183 12.7999 21.5162L14.5167 22.787C15.1794 23.2734 16.1168 22.7984 16.1124 21.9784L16.0212 4.97865C16.0153 3.87867 16.9105 2.97385 18.0105 2.96795L7.01063 3.02696L6.01065 3.03233C3.01069 3.04842 2.02031 4.84376 2.03216 7.05373L2.03753 8.05372Z" stroke="white" stroke-width="1.5" stroke-miterlimit="10" stroke-linecap="round" stroke-linejoin="round"/>
<path d="M9.06966 14.0261L12.0696 14.01" stroke="white" stroke-width="1.5" stroke-linecap="round" stroke-linejoin="round"/>
<path d="M9.04821 10.0261L12.0482 10.01" stroke="white" stroke-width="1.5" stroke-linecap="round" stroke-linejoin="round"/>
<path d="M6.06526 14.0322L6.07424 14.0321" stroke="white" stroke-width="2" stroke-linecap="round" stroke-linejoin="round"/>
<path d="M6.0438 10.0323L6.05278 10.0322" stroke="white" stroke-width="2" stroke-linecap="round" stroke-linejoin="round"/>
</svg>
