<svg width="18" height="18" viewBox="0 0 18 18" fill="none" xmlns="http://www.w3.org/2000/svg">
<path d="M9 17.5C7.31886 17.5 5.67546 17.0015 4.27765 16.0675C2.87983 15.1335 1.79038 13.806 1.14703 12.2528C0.503686 10.6996 0.335353 8.99058 0.663328 7.34174C0.991302 5.6929 1.80081 4.17834 2.98956 2.9896C4.17831 1.80085 5.69289 0.991306 7.34173 0.663332C8.99057 0.335357 10.6996 0.503675 12.2528 1.14702C13.806 1.79036 15.1335 2.87983 16.0675 4.27765C17.0015 5.67547 17.5 7.31886 17.5 9C17.4974 11.2535 16.601 13.414 15.0075 15.0075C13.414 16.601 11.2535 17.4974 9 17.5ZM9 1.5C7.51664 1.5 6.06662 1.93987 4.83325 2.76398C3.59988 3.58809 2.63858 4.75942 2.07092 6.12987C1.50326 7.50031 1.35471 9.00832 1.6441 10.4632C1.93349 11.918 2.64782 13.2544 3.69671 14.3033C4.74561 15.3522 6.08194 16.0665 7.5368 16.3559C8.99166 16.6453 10.4997 16.4968 11.8701 15.9291C13.2406 15.3614 14.4119 14.4001 15.236 13.1668C16.0601 11.9334 16.5 10.4834 16.5 9C16.4979 7.01153 15.707 5.1051 14.301 3.69904C12.8949 2.29297 10.9885 1.50212 9 1.5Z" fill="#000421"/>
<path d="M17 17.5C16.9343 17.5001 16.8692 17.4873 16.8085 17.4622C16.7477 17.4372 16.6925 17.4004 16.646 17.354L14.307 15.014C14.2593 14.9679 14.2212 14.9127 14.195 14.8517C14.1688 14.7907 14.155 14.7251 14.1544 14.6587C14.1538 14.5923 14.1665 14.5265 14.1916 14.465C14.2167 14.4036 14.2539 14.3477 14.3008 14.3008C14.3477 14.2539 14.4036 14.2167 14.465 14.1916C14.5265 14.1665 14.5923 14.1538 14.6587 14.1544C14.7251 14.155 14.7907 14.1687 14.8517 14.1949C14.9127 14.2212 14.9679 14.2593 15.014 14.307L17.354 16.646C17.4241 16.7159 17.4719 16.8051 17.4912 16.9022C17.5106 16.9993 17.5007 17.1 17.4628 17.1915C17.4249 17.2829 17.3607 17.3611 17.2783 17.416C17.1959 17.4709 17.099 17.5002 17 17.5Z" fill="#000421"/>
</svg>
