<svg width="24" height="24" viewBox="0 0 24 24" fill="none" xmlns="http://www.w3.org/2000/svg">
<path d="M12.4151 20.5711C12.087 20.5717 11.7619 20.5076 11.4587 20.3823C11.1555 20.257 10.88 20.0731 10.648 19.841L4.16102 13.354C3.92843 13.1224 3.74408 12.847 3.6186 12.5437C3.49313 12.2404 3.42901 11.9153 3.43 11.5871V5.92903C3.43 5.26599 3.6934 4.63011 4.16224 4.16127C4.63108 3.69243 5.26696 3.42903 5.93 3.42903H11.587C11.9155 3.42793 12.2409 3.49209 12.5444 3.61775C12.8479 3.74341 13.1235 3.92805 13.3551 4.16102L19.841 10.647C20.3097 11.1159 20.5729 11.7517 20.5729 12.4146C20.5729 13.0775 20.3097 13.7132 19.841 14.182L14.1831 19.84C13.951 20.0723 13.6754 20.2565 13.372 20.382C13.0685 20.5074 12.7434 20.5717 12.4151 20.5711ZM5.92903 4.43001C5.5312 4.43001 5.14966 4.58809 4.86836 4.8694C4.58705 5.1507 4.42903 5.53218 4.42903 5.93001V11.588C4.42828 11.7849 4.46664 11.98 4.54182 12.1619C4.61701 12.3439 4.72751 12.5091 4.86702 12.648L11.354 19.135C11.6353 19.4159 12.0165 19.5737 12.414 19.5737C12.8115 19.5737 13.1928 19.4159 13.474 19.135L19.132 13.4771C19.4132 13.1958 19.5712 12.8143 19.5712 12.4165C19.5712 12.0188 19.4132 11.6373 19.132 11.356L12.646 4.87001C12.3638 4.58995 11.9826 4.43228 11.585 4.43104L5.92903 4.43001Z" fill="#000421"/>
<path d="M7.28805 8.53805C6.99938 8.53758 6.71978 8.43704 6.49691 8.25357C6.27404 8.0701 6.12169 7.81503 6.06576 7.53183C6.00984 7.24862 6.05381 6.95476 6.19021 6.70035C6.32661 6.44593 6.54698 6.24668 6.81381 6.1365C7.08063 6.02633 7.37743 6.01209 7.65359 6.09616C7.92975 6.18023 8.16822 6.35746 8.3284 6.59762C8.48857 6.83779 8.56051 7.12603 8.53201 7.4133C8.5035 7.70056 8.37627 7.96906 8.17202 8.17306C8.05601 8.28917 7.91822 8.38118 7.76651 8.44382C7.61479 8.50646 7.45219 8.53849 7.28805 8.53805ZM7.28805 7.03805C7.25527 7.03792 7.2228 7.04428 7.19247 7.05673C7.16214 7.06919 7.13458 7.08749 7.11135 7.11063C7.08813 7.13376 7.06967 7.16128 7.05709 7.19156C7.04452 7.22183 7.03805 7.25429 7.03805 7.28708C7.03805 7.35338 7.06441 7.41695 7.11129 7.46384C7.15818 7.51072 7.22175 7.53708 7.28805 7.53708C7.35436 7.53708 7.41792 7.51072 7.46481 7.46384C7.51169 7.41695 7.53805 7.35338 7.53805 7.28708C7.53805 7.25429 7.53158 7.22183 7.51901 7.19156C7.50643 7.16128 7.48798 7.13376 7.46475 7.11063C7.44152 7.08749 7.41396 7.06919 7.38363 7.05673C7.35331 7.04428 7.32083 7.03792 7.28805 7.03805Z" fill="#000421"/>
</svg>
