<svg width="20" height="20" viewBox="0 0 20 20" fill="none" xmlns="http://www.w3.org/2000/svg">
<path d="M14 19.32V19.9867C14.3682 19.9867 14.6667 19.6882 14.6667 19.32H14ZM0.666667 19.32H0C0 19.6882 0.298477 19.9867 0.666667 19.9867V19.32ZM19.3333 19.3333V20C19.7015 20 20 19.7015 20 19.3333H19.3333ZM10.6667 4.664C10.6665 5.10156 10.5801 5.53481 10.4125 5.939C10.2449 6.34319 9.99933 6.71041 9.6898 7.01969C9.38028 7.32897 9.01286 7.57426 8.60854 7.74154C8.20421 7.90883 7.7709 7.99484 7.33333 7.99467V9.328C9.91067 9.328 12 7.24 12 4.664H10.6667ZM7.33333 7.99467C6.89577 7.99484 6.46246 7.90883 6.05813 7.74154C5.65381 7.57426 5.28639 7.32897 4.97686 7.01969C4.66733 6.71041 4.42175 6.34319 4.25414 5.939C4.08653 5.53481 4.00017 5.10156 4 4.664H2.66667C2.66684 5.27666 2.78769 5.88329 3.0223 6.44924C3.25692 7.0152 3.60071 7.52941 4.03405 7.9625C4.46739 8.39559 4.98179 8.73909 5.54789 8.97338C6.11398 9.20768 6.72067 9.32818 7.33333 9.328V7.99467ZM4 4.664C4.00017 4.22644 4.08653 3.79319 4.25414 3.389C4.42175 2.98481 4.66733 2.61759 4.97686 2.30831C5.28639 1.99903 5.65381 1.75374 6.05813 1.58646C6.46246 1.41917 6.89577 1.33316 7.33333 1.33333V1.90603e-07C6.72067 -0.00017493 6.11398 0.120324 5.54789 0.354617C4.98179 0.58891 4.46739 0.932409 4.03405 1.3655C3.60071 1.79859 3.25692 2.3128 3.0223 2.87876C2.78769 3.44471 2.66684 4.05134 2.66667 4.664H4ZM7.33333 1.33333C9.17467 1.33333 10.6667 2.82533 10.6667 4.664H12C11.9998 4.05134 11.879 3.44471 11.6444 2.87876C11.4097 2.3128 11.066 1.79859 10.6326 1.3655C10.1993 0.932409 9.68487 0.58891 9.11878 0.354617C8.55269 0.120324 7.94599 -0.00017493 7.33333 1.90603e-07V1.33333ZM14 18.6533H0.666667V19.9867H14V18.6533ZM1.33333 19.32V19.316V19.3107V19.304V19.2987V19.2933V19.288V19.2827V19.2773V19.2707V19.2653V19.26V19.2547V19.2493V19.244V19.2387V19.232V19.2267V19.2213V19.216V19.2107V19.2053V19.1987V19.1933V19.188V19.1827V19.1773V19.172V19.1667V19.1613V19.1547V19.1493V19.144V19.1387V19.1333V19.128V19.1227V19.116V19.1107V19.1053V19.1V19.0947V19.0893V19.084V19.0787V19.0733V19.0667V19.0613V19.056V19.0507V19.0453V19.04V19.0347V19.028V19.0227V19.0173V19.012V19.0067V19.0013V18.996V18.9907V18.9853V18.9787V18.9733V18.968V18.9627V18.9573V18.952V18.9467V18.9413V18.936V18.9307V18.924V18.9187V18.9133V18.908V18.9027V18.8973V18.892V18.8867V18.8813V18.876V18.8693V18.864V18.8587V18.8533V18.848V18.8427V18.8373V18.832V18.8267V18.8213V18.816V18.8107V18.804V18.7987V18.7933V18.788V18.7827V18.7773V18.772V18.7667V18.7613V18.756V18.7507V18.7453V18.74V18.7333V18.728V18.7227V18.7173V18.712V18.7067V18.7013V18.696V18.6907V18.6853V18.68V18.6747V18.6693V18.664V18.6587V18.6533V18.6467V18.6427V18.636V18.6307V18.6253V18.62V18.6147V18.6093V18.604V18.5987V18.5933V18.588V18.5827V18.5773V18.572V18.5667V18.5613V18.556V18.5507V18.5453V18.54V18.5347V18.5293V18.524V18.5173V18.512V18.5067V18.5013V18.496V18.4907V18.4853V18.48V18.4747V18.4693V18.464V18.4587V18.4533V18.448V18.4427V18.4373V18.432V18.4267V18.4213V18.416V18.4107V18.4053V18.4V18.3947V18.3893V18.384V18.3787V18.3733V18.368V18.3627V18.3573V18.352V18.3467V18.3413V18.336V18.3307V18.3253V18.32V18.3147V18.3093V18.304V18.2987V18.2933V18.288V18.2827V18.2773V18.272V18.2667V18.2613V18.256V18.2507V18.2453V18.24V18.2347V18.2293V18.224V18.2187V18.2147V18.208V18.2027V18.1987V18.1933V18.188V18.1827V18.1773V18.172V18.1667V18.1613V18.156V18.1507V18.1453V18.14V18.1347V18.1293V18.124V18.1187V18.1133V18.108V18.1027V18.0973V18.092V18.0867V18.0827V18.0773V18.072V18.0667V18.0613V18.056V18.0507V18.0453V18.04V18.0347V18.0293V18.024V18.0187V18.0133V18.008V18.0027V17.9973V17.9933V17.988V17.9827V17.9773V17.972V17.9667V17.9613V17.956V17.9507V17.9453V17.94V17.9347V17.9307V17.9253V17.92V17.9147V17.9093V17.904V17.8987V17.8933V17.888V17.8827V17.8773V17.8733V17.868V17.8627V17.8573V17.852V17.8467V17.8413V17.836V17.8307V17.8267V17.8213V17.816V17.8107V17.8053V17.8V17.7947V17.7893V17.784V17.78V17.7747V17.7693V17.764V17.7587V17.7533V17.748V17.7427V17.7387V17.7333V17.728V17.7227V17.7173V17.712V17.7067V17.7027V17.6973V17.692V17.6867V17.6813V17.676V17.6707V17.6653V17.6613V17.656V17.6507V17.6453V17.64V17.6347V17.6293V17.6253V17.62V17.6147V17.6093V17.604V17.6V17.5947V17.5893V17.584V17.5787V17.5733V17.5693V17.564V17.5587V17.5533V17.548V17.5427V17.5373V17.5333V17.528V17.5227V17.5173V17.512V17.508V17.5027V17.4973V17.492V17.4867V17.4813V17.4773V17.472V17.4667V17.4613V17.456V17.452V17.4467V17.4413V17.436V17.4307V17.4267V17.4213V17.416V17.4107V17.4067V17.4013V17.396V17.3907V17.3853V17.3813V17.376V17.3707V17.3653V17.3613V17.356V17.3507V17.3453V17.34V17.336V17.3307V17.3253V17.32V17.3147V17.3107V17.3053V17.3V17.2947V17.2907V17.2853V17.28V17.2747V17.2707V17.2653V17.26V17.2547V17.2507V17.2453V17.24V17.2347V17.2307V17.2253V17.22V17.2147V17.2107V17.2053V17.2V17.1947V17.1907V17.1853V17.18V17.176V17.1707V17.1653V17.16V17.156V17.1507V17.1453V17.14V17.136V17.1307V17.1253V17.1213V17.116V17.1107V17.1053V17.1013V17.096V17.0907V17.0867V17.0813V17.076V17.0707V17.0667V17.0613V17.056V17.052V17.0467V17.0413V17.036V17.032V17.0267V17.0227V17.0173V17.012V17.0067V17.0027V16.9973V16.992V16.988V16.9827V16.9773V16.9733V16.968V16.9627V16.9587V16.9533V16.948V16.944V16.9387V16.9333V16.9293V16.924V16.9187V16.9147V16.9093V16.904V16.9V16.8947V16.8893V16.8853V16.88V16.8747V16.8707V16.8653V16.86V16.856V16.8507V16.8453V16.8413V16.836V16.832V16.8267V16.8213V16.8173V16.812V16.8067V16.8027V16.7973V16.7933V16.788V16.7827V16.7787V16.7733V16.768V16.764V16.7587V16.7547V16.7493V16.744V16.74V16.7347V16.7307V16.7253V16.72V16.716V16.7107V16.7067V16.7013V16.696V16.692V16.6867V16.6827V16.6773V16.672V16.668V16.6627V16.6587H0V19.32H1.33333ZM4.66667 13.3253H10V11.992H4.66667V13.3253ZM13.3333 16.6587V19.32H14.6667V19.3147V19.3093V19.3027V19.2973V19.292V19.2867V19.2813V19.276V19.2693V19.264V19.2587V19.2533V19.248V19.2427V19.2373V19.2307V19.2253V19.22V19.2147V19.2093V19.204V19.1973V19.192V19.1867V19.1813V19.176V19.1707V19.1653V19.16V19.1533V19.148V19.1427V19.1373V19.132V19.1267V19.1213V19.1147V19.1093V19.104V19.0987V19.0933V19.088V19.0827V19.0773V19.072V19.0653V19.06V19.0547V19.0493V19.044V19.0387V19.0333V19.0267V19.0213V19.016V19.0107V19.0053V19V18.9947V18.9893V18.984V18.9773V18.972V18.9667V18.9613V18.956V18.9507V18.9453V18.94V18.9347V18.9293V18.9227V18.9173V18.912V18.9067V18.9013V18.896V18.8907V18.8853V18.88V18.8747V18.868V18.8627V18.8573V18.852V18.8467V18.8413V18.836V18.8307V18.8253V18.82V18.8147V18.8093V18.8027V18.7973V18.792V18.7867V18.7813V18.776V18.7707V18.7653V18.76V18.7547V18.7493V18.744V18.7387V18.732V18.7267V18.7213V18.716V18.7107V18.7053V18.7V18.6947V18.6893V18.684V18.6787V18.6733V18.668V18.6627V18.6573V18.652V18.6453V18.6413V18.6347V18.6293V18.624V18.6187V18.6133V18.608V18.6027V18.5973V18.592V18.5867V18.5813V18.576V18.5707V18.5653V18.56V18.5547V18.5493V18.544V18.5387V18.5333V18.528V18.5227V18.516V18.5107V18.5053V18.5V18.4947V18.4893V18.484V18.4787V18.4733V18.468V18.4627V18.4573V18.452V18.4467V18.4413V18.436V18.4307V18.4253V18.42V18.4147V18.4093V18.404V18.3987V18.3933V18.388V18.3827V18.3773V18.372V18.3667V18.3613V18.356V18.3507V18.3453V18.34V18.3347V18.3293V18.324V18.3187V18.3133V18.308V18.3027V18.2973V18.292V18.2867V18.2813V18.276V18.2707V18.2653V18.26V18.2547V18.2493V18.244V18.2387V18.2333V18.228V18.2227V18.2173V18.2133V18.2067V18.2013V18.1973V18.192V18.1867V18.1813V18.176V18.1707V18.1653V18.16V18.1547V18.1493V18.144V18.1387V18.1333V18.128V18.1227V18.1173V18.112V18.1067V18.1013V18.096V18.0907V18.0853V18.0813V18.076V18.0707V18.0653V18.06V18.0547V18.0493V18.044V18.0387V18.0333V18.028V18.0227V18.0173V18.012V18.0067V18.0013V17.996V17.992V17.9867V17.9813V17.976V17.9707V17.9653V17.96V17.9547V17.9493V17.944V17.9387V17.9333V17.9293V17.924V17.9187V17.9133V17.908V17.9027V17.8973V17.892V17.8867V17.8813V17.876V17.872V17.8667V17.8613V17.856V17.8507V17.8453V17.84V17.8347V17.8293V17.8253V17.82V17.8147V17.8093V17.804V17.7987V17.7933V17.788V17.7827V17.7787V17.7733V17.768V17.7627V17.7573V17.752V17.7467V17.7413V17.7373V17.732V17.7267V17.7213V17.716V17.7107V17.7053V17.7013V17.696V17.6907V17.6853V17.68V17.6747V17.6693V17.664V17.66V17.6547V17.6493V17.644V17.6387V17.6333V17.628V17.624V17.6187V17.6133V17.608V17.6027V17.5987V17.5933V17.588V17.5827V17.5773V17.572V17.568V17.5627V17.5573V17.552V17.5467V17.5413V17.536V17.532V17.5267V17.5213V17.516V17.5107V17.5067V17.5013V17.496V17.4907V17.4853V17.48V17.476V17.4707V17.4653V17.46V17.4547V17.4507V17.4453V17.44V17.4347V17.4293V17.4253V17.42V17.4147V17.4093V17.4053V17.4V17.3947V17.3893V17.384V17.38V17.3747V17.3693V17.364V17.36V17.3547V17.3493V17.344V17.3387V17.3347V17.3293V17.324V17.3187V17.3133V17.3093V17.304V17.2987V17.2933V17.2893V17.284V17.2787V17.2733V17.2693V17.264V17.2587V17.2533V17.2493V17.244V17.2387V17.2333V17.2293V17.224V17.2187V17.2133V17.2093V17.204V17.1987V17.1933V17.1893V17.184V17.1787V17.1747V17.1693V17.164V17.1587V17.1547V17.1493V17.144V17.1387V17.1347V17.1293V17.124V17.12V17.1147V17.1093V17.104V17.1V17.0947V17.0893V17.0853V17.08V17.0747V17.0693V17.0653V17.06V17.0547V17.0507V17.0453V17.04V17.0347V17.0307V17.0253V17.0213V17.016V17.0107V17.0053V17.0013V16.996V16.9907V16.9867V16.9813V16.976V16.972V16.9667V16.9613V16.9573V16.952V16.9467V16.9427V16.9373V16.932V16.928V16.9227V16.9173V16.9133V16.908V16.9027V16.8987V16.8933V16.888V16.884V16.8787V16.8733V16.8693V16.864V16.8587V16.8547V16.8493V16.844V16.84V16.8347V16.8307V16.8253V16.82V16.816V16.8107V16.8053V16.8013V16.796V16.792V16.7867V16.7813V16.7773V16.772V16.7667V16.7627V16.7573V16.7533V16.748V16.7427V16.7387V16.7333V16.7293V16.724V16.7187V16.7147V16.7093V16.7053V16.7V16.6947V16.6907V16.6853V16.6813V16.676V16.6707V16.6667V16.6613V16.6573H13.3333V16.6587ZM10 13.3253C10.8841 13.3253 11.7319 13.6765 12.357 14.3016C12.9821 14.9268 13.3333 15.7746 13.3333 16.6587H14.6667C14.6667 15.421 14.175 14.234 13.2998 13.3588C12.4247 12.4837 11.2377 11.992 10 11.992V13.3253ZM1.33333 16.6587C1.33333 15.7746 1.68452 14.9268 2.30964 14.3016C2.93477 13.6765 3.78261 13.3253 4.66667 13.3253V11.992C3.42899 11.992 2.242 12.4837 1.36683 13.3588C0.491665 14.234 0 15.421 0 16.6587H1.33333ZM18.6667 17.3333V19.3333H20V17.3333H18.6667ZM19.3333 18.6667H16V20H19.3333V18.6667ZM16 14.6667C16.7072 14.6667 17.3855 14.9476 17.8856 15.4477C18.3857 15.9478 18.6667 16.6261 18.6667 17.3333H20C20 16.2725 19.5786 15.2551 18.8284 14.5049C18.0783 13.7548 17.0609 13.3333 16 13.3333V14.6667ZM15.3333 10.6667C14.8029 10.6667 14.2942 10.456 13.9191 10.0809C13.544 9.70581 13.3333 9.1971 13.3333 8.66667H12C12 9.55072 12.3512 10.3986 12.9763 11.0237C13.6014 11.6488 14.4493 12 15.3333 12V10.6667ZM17.3333 8.66667C17.3333 9.1971 17.1226 9.70581 16.7475 10.0809C16.3725 10.456 15.8638 10.6667 15.3333 10.6667V12C16.2174 12 17.0652 11.6488 17.6904 11.0237C18.3155 10.3986 18.6667 9.55072 18.6667 8.66667H17.3333ZM15.3333 6.66667C15.8638 6.66667 16.3725 6.87738 16.7475 7.25245C17.1226 7.62753 17.3333 8.13623 17.3333 8.66667H18.6667C18.6667 7.78261 18.3155 6.93477 17.6904 6.30964C17.0652 5.68452 16.2174 5.33333 15.3333 5.33333V6.66667ZM15.3333 5.33333C14.4493 5.33333 13.6014 5.68452 12.9763 6.30964C12.3512 6.93477 12 7.78261 12 8.66667H13.3333C13.3333 8.13623 13.544 7.62753 13.9191 7.25245C14.2942 6.87738 14.8029 6.66667 15.3333 6.66667V5.33333Z" fill="#000421"/>
</svg>
